<svg xmlns="http://www.w3.org/2000/svg" width="41.677" height="32.257" viewBox="0 0 41.677 32.257"><path d="M43.234,16.808a5.118,5.118,0,0,0-4.809,5.376,5.942,5.942,0,0,0,.294,1.792H7.969a1.8,1.8,0,0,0,0,3.584H43.234a5.118,5.118,0,0,0,4.809-5.376,5.118,5.118,0,0,0-4.809-5.376ZM7.969,20.392H27.2a5.118,5.118,0,0,0,4.809-5.376A5.118,5.118,0,0,0,27.2,9.64,5.118,5.118,0,0,0,22.4,15.016a5.942,5.942,0,0,0,.294,1.792H7.969a1.8,1.8,0,0,0,0,3.584ZM33.617,31.145c-.094,0-.184.023-.28.033-.063,0-.115-.033-.177-.033H8.429a1.81,1.81,0,1,0,0,3.584H29.1a5.955,5.955,0,0,0-.294,1.792A5.118,5.118,0,0,0,33.617,41.9a5.118,5.118,0,0,0,4.809-5.376,5.118,5.118,0,0,0-4.809-5.376Z" transform="translate(-6.367 -9.64)"/></svg>