<?xml version="1.0" encoding="UTF-8"?>
<svg width="205px" height="45px" viewBox="0 0 205 45" version="1.1" xmlns="http://www.w3.org/2000/svg" xmlns:xlink="http://www.w3.org/1999/xlink">
    <!-- Generator: Sketch 52.4 (67378) - http://www.bohemiancoding.com/sketch -->
    <title>Group 6</title>
    <desc>Created with Sketch.</desc>
    <g id="Page-1" stroke="none" stroke-width="1" fill="none" fill-rule="evenodd">
        <g id="mobile_zigzag" transform="translate(-85.000000, -817.000000)" fill="#000000">
            <g id="Group-8" transform="translate(0.000000, 790.000000)">
                <g id="Group-6" transform="translate(85.000000, 27.000000)">
                    <g id="Group-31" transform="translate(0.000000, 0.000000)">
                        <path d="M30.2356983,23.5427424 C30.1851085,17.9758401 34.7928281,15.2682736 35.0032817,15.1407873 C32.3948713,11.3344102 28.3476867,10.814347 26.9271249,10.7738751 C23.5295135,10.4177229 20.2351053,12.8075854 18.5029103,12.8075854 C16.7383378,12.8075854 14.0732667,10.8102998 11.2017893,10.868984 C7.50670979,10.9256446 4.04636698,13.0666052 2.15026101,16.3893437 C-1.76336646,23.1643307 1.15465361,33.1224283 4.90437011,38.598269 C6.78024016,41.283576 8.9717906,44.2784926 11.8412445,44.1712422 C14.647967,44.0558974 15.6961878,42.3823866 19.0836812,42.3823866 C22.4408208,42.3823866 23.4242867,44.1712422 26.3504011,44.1044636 C29.3615065,44.0558974 31.259636,41.4090387 33.0687275,38.7014722 C35.2380184,35.6276356 36.1081631,32.6003415 36.1425642,32.4445249 C36.0717385,32.4202418 30.2923589,30.2165498 30.2356983,23.5427424" id="Fill-5"></path>
                        <path d="M24.7072442,7.17208322 C26.216844,5.28407162 27.2488761,2.71613302 26.9635496,0.107722563 C24.7780699,0.204854992 22.0462203,1.619346 20.4718656,3.46688575 C19.0796341,5.09385395 17.8351248,7.76297217 18.156876,10.2681794 C20.6114934,10.4523263 23.1328894,9.02974094 24.7072442,7.17208322" id="Fill-7"></path>
                    </g>
                    <g id="Group-30" transform="translate(48.861314, 7.043796)">
                        <path d="M8.39265317,17.0732561 L16.150342,17.0732561 L12.3252556,5.81096104 L12.2198072,5.81096104 L8.39265317,17.0732561 Z M17.1655406,20.2759906 L7.37952217,20.2759906 L5.02864472,27.2149042 L0.883078064,27.2149042 L10.1542605,1.53926992 L14.4611011,1.53926992 L23.730216,27.2149042 L19.5143504,27.2149042 L17.1655406,20.2759906 Z" id="Fill-9"></path>
                        <path d="M39.8005413,17.8566751 C39.8005413,14.0667381 37.8425106,11.5752629 34.8527403,11.5752629 C31.916728,11.5752629 29.9421564,14.1184285 29.9421564,17.8566751 C29.9421564,21.6280036 31.916728,24.1546283 34.8527403,24.1546283 C37.8425106,24.1546283 39.8005413,21.6817616 39.8005413,17.8566751 M43.7496846,17.8566751 C43.7496846,23.6728741 40.6358575,27.4111208 35.9382378,27.4111208 C33.2710154,27.4111208 31.1517107,26.2181073 30.0476047,24.1360197 L29.9586973,24.1360197 L29.9586973,33.4072022 L26.1170699,33.4072022 L26.1170699,8.49658525 L29.836708,8.49658525 L29.836708,11.6104124 L29.9070069,11.6104124 C30.9738959,9.60069128 33.2524068,8.30016189 35.8679389,8.30016189 C40.6193166,8.30016189 43.7496846,12.0549494 43.7496846,17.8566751" id="Fill-11"></path>
                        <path d="M60.4041109,17.8566751 C60.4041109,14.0667381 58.4460802,11.5752629 55.45631,11.5752629 C52.5202977,11.5752629 50.545726,14.1184285 50.545726,17.8566751 C50.545726,21.6280036 52.5202977,24.1546283 55.45631,24.1546283 C58.4460802,24.1546283 60.4041109,21.6817616 60.4041109,17.8566751 M64.3532542,17.8566751 C64.3532542,23.6728741 61.2394271,27.4111208 56.5418075,27.4111208 C53.874585,27.4111208 51.7552804,26.2181073 50.6511743,24.1360197 L50.5622669,24.1360197 L50.5622669,33.4072022 L46.7206396,33.4072022 L46.7206396,8.49658525 L50.4402777,8.49658525 L50.4402777,11.6104124 L50.5105766,11.6104124 C51.5774655,9.60069128 53.8559765,8.30016189 56.4715086,8.30016189 C61.2228862,8.30016189 64.3532542,12.0549494 64.3532542,17.8566751" id="Fill-13"></path>
                        <path d="M77.9707687,20.061579 C78.2560995,22.6068122 80.7289662,24.2795122 84.1095156,24.2795122 C87.3473995,24.2795122 89.6776008,22.6068122 89.6776008,20.3117604 C89.6776008,18.3185802 88.2716231,17.1255667 84.9448317,16.3088591 L81.6180403,15.5066247 C76.9018121,14.3673693 74.7142762,12.1632924 74.7142762,8.58425209 C74.7142762,4.15542228 78.5745121,1.11189405 84.0557576,1.11189405 C89.4811775,1.11189405 93.2008156,4.15542228 93.3269401,8.58425209 L89.4480957,8.58425209 C89.2144552,6.02247799 87.0972182,4.4759025 84.0019996,4.4759025 C80.906781,4.4759025 78.789544,6.04108652 78.789544,8.31752985 C78.789544,10.1328952 80.1417637,11.2018518 83.4499466,12.0185594 L86.2805106,12.7132778 C91.5467242,13.9600493 93.7363277,16.0752187 93.7363277,19.8320738 C93.7363277,24.6351418 89.9091736,27.6435206 83.8241848,27.6435206 C78.129975,27.6435206 74.2862801,24.7054407 74.0381663,20.061579 L77.9707687,20.061579 Z" id="Fill-15"></path>
                        <path d="M102.028908,4.06589458 L102.028908,8.49679201 L105.58934,8.49679201 L105.58934,11.5382526 L102.028908,11.5382526 L102.028908,21.8577156 C102.028908,23.4621842 102.742235,24.208593 104.307419,24.208593 C104.698198,24.208593 105.322618,24.154835 105.570732,24.1196856 L105.570732,27.1446053 C105.144803,27.2521212 104.290878,27.3224201 103.436954,27.3224201 C99.6470167,27.3224201 98.1686725,25.8999015 98.1686725,22.2691708 L98.1686725,11.5382526 L95.4456244,11.5382526 L95.4456244,8.49679201 L98.1686725,8.49679201 L98.1686725,4.06589458 L102.028908,4.06589458 Z" id="Fill-17"></path>
                        <path d="M121.493636,17.8566751 C121.493636,13.8165568 119.641054,11.4325975 116.529294,11.4325975 C113.415467,11.4325975 111.564952,13.8351653 111.564952,17.8566751 C111.564952,21.9133344 113.415467,24.2786851 116.529294,24.2786851 C119.641054,24.2786851 121.493636,21.9133344 121.493636,17.8566751 M107.650958,17.8566751 C107.650958,11.966042 111.118348,8.26501245 116.529294,8.26501245 C121.956782,8.26501245 125.409698,11.966042 125.409698,17.8566751 C125.409698,23.7617816 121.973323,27.4483378 116.529294,27.4483378 C111.085266,27.4483378 107.650958,23.7617816 107.650958,17.8566751" id="Fill-19"></path>
                        <path d="M128.576869,8.49596496 L132.240682,8.49596496 L132.240682,11.6821586 L132.329589,11.6821586 C132.918859,9.56492155 134.626708,8.29954161 136.832853,8.29954161 C137.384906,8.29954161 137.845984,8.37190811 138.149923,8.44427461 L138.149923,12.0377882 C137.845984,11.9116638 137.169874,11.8062154 136.423465,11.8062154 C133.950599,11.8062154 132.418496,13.4789154 132.418496,16.113056 L132.418496,27.2161448 L128.576869,27.2161448 L128.576869,8.49596496 Z" id="Fill-21"></path>
                        <path d="M142.87649,16.130424 L152.234512,16.130424 C152.145604,13.2647106 150.313698,11.3790463 147.644408,11.3790463 C144.991659,11.3790463 143.072913,13.3019276 142.87649,16.130424 Z M155.865242,21.7171178 C155.348339,25.1162757 152.040156,27.4485446 147.805682,27.4485446 C142.359586,27.4485446 138.979037,23.7992054 138.979037,17.9457893 C138.979037,12.0737647 142.378194,8.26521921 147.644408,8.26521921 C152.823782,8.26521921 156.080274,11.8235834 156.080274,17.4991846 L156.080274,18.8162549 L142.857881,18.8162549 L142.857881,19.0478277 C142.857881,22.2505623 144.86967,24.3512584 147.894589,24.3512584 C150.028367,24.3512584 151.703135,23.3360598 152.217971,21.7171178 L155.865242,21.7171178 Z" id="Fill-23"></path>
                    </g>
                </g>
            </g>
        </g>
    </g>
</svg>