<svg xmlns="http://www.w3.org/2000/svg" width="43.52" height="32.64" viewBox="0 0 43.52 32.64"><g transform="translate(0 -64)"><g transform="translate(0 64)"><path d="M42.613,82.133H7.253V64.907A.906.906,0,0,0,6.347,64H.907A.906.906,0,0,0,0,64.907V95.733a.906.906,0,0,0,.907.907h5.44a.906.906,0,0,0,.907-.907V89.387H36.267v6.347a.906.906,0,0,0,.907.907h5.44a.906.906,0,0,0,.907-.907V83.04A.906.906,0,0,0,42.613,82.133Z" transform="translate(0 -64)"/><circle cx="5.44" cy="5.44" r="5.44" transform="translate(9.067 5.44)"/><path d="M256.907,138.88h19.947a.906.906,0,0,0,.907-.907A9.985,9.985,0,0,0,267.787,128h-10.88a.906.906,0,0,0-.907.907v9.067A.906.906,0,0,0,256.907,138.88Z" transform="translate(-234.24 -122.56)"/></g></g></svg>