<svg xmlns="http://www.w3.org/2000/svg" width="27" height="29" viewBox="0 0 27 29">
  <g id="그룹_379" data-name="그룹 379" transform="translate(-1757.004 -193)">
    <g id="Phone" transform="translate(1757.004 193)">
      <rect id="사각형_320" data-name="사각형 320" width="27" height="27" fill="none"/>
      <path id="패스_110" data-name="패스 110" d="M15.67,20.714l2.893-2.848a.847.847,0,0,1,.723-.259l.482.259,6.75,3.366c.482.259.482.518.482,1.036-.241,2.071-.723,3.625-1.929,4.661A6.655,6.655,0,0,1,20.009,29a13.881,13.881,0,0,1-6.75-1.812,31.743,31.743,0,0,1-6.75-5.179,44.393,44.393,0,0,1-3.616-5.7,37.136,37.136,0,0,1-2.411-5.7A17.064,17.064,0,0,1,0,5.7,7.029,7.029,0,0,1,1.688,1.813C2.652.777,4.1.259,6.268,0a1.227,1.227,0,0,1,.964.518l3.616,7.25a.925.925,0,0,0,.241.518,1,1,0,0,1-.241.777L7.714,12.17a1.227,1.227,0,0,0,0,1.295,24.667,24.667,0,0,0,2.893,4.143,24.772,24.772,0,0,0,3.857,3.366C14.946,21.232,15.429,21.232,15.67,20.714Z" transform="translate(0 0)"/>
    </g>
  </g>
</svg>
