<svg xmlns="http://www.w3.org/2000/svg" width="46" height="36" viewBox="0 0 46 36"><path d="M31.206,37.389,42.18,22.866l-28.641-11.4L7,27.756l11.222,4.466-1.38,3.426c-.111-.008-.222-.014-.334-.014a4.322,4.322,0,0,0-4.1,2.96H8.122V32.663H0V47.468H8.122v-6.2h4.285a4.313,4.313,0,1,0,6.916-4.592l1.395-3.462Zm-2.261-8.3,2.5.993-1,2.485-2.495-.993Z" transform="translate(0 -11.468)"/><g transform="translate(35.62 14.807)"><path d="M90.078,46.018l-7.351,9.77,6,2.4,4.379-10.958Z" transform="translate(-82.726 -46.018)"/></g></svg>