<svg xmlns="http://www.w3.org/2000/svg" width="43.921" height="34.052" viewBox="0 0 43.921 34.052"><g transform="translate(0 -57.525)"><path d="M0,244.475v2.573H3.636v3.431H18.324v-3.431h20.45V262.49h2.573V247.049h2.573v-2.573Z" transform="translate(0 -170.913)"/><path d="M42.387,344.475H57.075v3.431H42.387Z" transform="translate(-38.751 -262.335)"/><path d="M42.387,414.475H57.075v3.431H42.387Z" transform="translate(-38.751 -326.33)"/><path d="M48.856,70.989,45,67.135l3.615-3.615a3.815,3.815,0,0,0,1.121,2.73l1.895,1.895,5.413-5.413-1.895-1.895a3.829,3.829,0,0,0-4.346-.753l-2.559-2.559-1.82,1.82,1.363,1.363-5.866,5.865V67.7l3.293,3.293h3.639Z" transform="translate(-38.328 0)"/><path d="M310.465,85.621h2.573V83.047h5.493V73.53H304.972v9.517h5.493Z" transform="translate(-278.811 -14.632)"/></g></svg>