<svg xmlns="http://www.w3.org/2000/svg" width="38" height="44" viewBox="0 0 38 44"><path d="M69.651,2.777a.792.792,0,0,0-.54-.189.587.587,0,0,0-.188.027L56.832,5.2a.771.771,0,0,0-.486.3.854.854,0,0,0-.188.539H48.007a4.146,4.146,0,0,0,.378-1.726,4.152,4.152,0,0,0-1.268-3.047,4.3,4.3,0,0,0-6.1,0,4.15,4.15,0,0,0-1.268,3.047,4.476,4.476,0,0,0,.675,2.319,12.021,12.021,0,0,0-2.928,1.415A14.592,14.592,0,0,0,35.2,9.854a17.354,17.354,0,0,0-1.633,1.887q-.755,1.011-1.012,1.442t-.391.7a1.652,1.652,0,0,0-.094,1.321,1.7,1.7,0,0,0,.85,1,1.627,1.627,0,0,0,.783.189,1.584,1.584,0,0,0,1.538-.944q.108-.215.378-.661a14.639,14.639,0,0,1,1.093-1.443,13.477,13.477,0,0,1,1.781-1.793,9.776,9.776,0,0,1,2.47-1.428,7.96,7.96,0,0,1,3.1-.634h.863v2.993a8.286,8.286,0,0,0-4.359,3.087,8.417,8.417,0,0,0-1.687,5.136V42.274A1.751,1.751,0,0,0,40.612,44H54.431a1.751,1.751,0,0,0,1.727-1.726V20.705A8.353,8.353,0,0,0,54.2,15.232a8.474,8.474,0,0,0-4.952-2.992V9.49h6.909a.858.858,0,0,0,.189.539.775.775,0,0,0,.486.3l12.091,2.588a.589.589,0,0,0,.189.027.863.863,0,0,0,.864-.863V3.451A.8.8,0,0,0,69.651,2.777ZM45.281,5.527a1.7,1.7,0,0,1-2.429,0,1.692,1.692,0,0,1,0-2.426,1.7,1.7,0,0,1,2.429,0,1.692,1.692,0,0,1,0,2.426Z" transform="translate(-31.975)"/></svg>