<svg xmlns="http://www.w3.org/2000/svg" width="32.064" height="37.408" viewBox="0 0 32.064 37.408"><path d="M8.857,41.648a2.37,2.37,0,0,1,.61-1.632,1.9,1.9,0,0,1,1.474-.666v-.043l27.7.086c.126-.021.211-.043.211-.043a2.023,2.023,0,0,1,1.474.709,2.312,2.312,0,0,1,.589,1.654,2.37,2.37,0,0,1-.61,1.632,1.9,1.9,0,0,1-1.474.666v.021L11.4,43.946c-.211.021-.358.043-.463.043A1.966,1.966,0,0,1,9.467,43.3,2.24,2.24,0,0,1,8.857,41.648Zm1.726-11.725a15.084,15.084,0,0,1,.337-3.264,19.015,19.015,0,0,1,.926-2.942c.042-.107.147-.3.274-.6.021.043.063.064.084.107s.042.043.042.064a9.26,9.26,0,0,0,1.032,2.577A3.626,3.626,0,0,0,15,27.347a6.4,6.4,0,0,0,2.316.387h.337a11.381,11.381,0,0,1-1.663-2.147,10.113,10.113,0,0,1-1.2-3.887,16.536,16.536,0,0,1,.189-4.209,17.574,17.574,0,0,1,.61-2.169,9.5,9.5,0,0,1,1.347-2.749A15.489,15.489,0,0,1,19.866,9.33a25.963,25.963,0,0,1,3.284-2.3c.147-.086.379-.236.737-.408V6.86a15.062,15.062,0,0,0-1.032,3.715,5.812,5.812,0,0,0,.505,3.178,8.32,8.32,0,0,0,1.937,2.47c.189.193.61.623,1.263,1.245.632.623,1.137,1.117,1.474,1.46l.526.537a5.683,5.683,0,0,0,.926-2.9,13.894,13.894,0,0,0-.295-3.865,1.636,1.636,0,0,1,.021-.236c.042.043.274.215.632.515a21.57,21.57,0,0,1,2.695,2.878,17.864,17.864,0,0,1,2.231,3.737,12.691,12.691,0,0,1,.8,3.006,13.238,13.238,0,0,1,.147,2.255,16.643,16.643,0,0,1-.526,4.209c-.147.451-.274.816-.4,1.117a6.314,6.314,0,0,0,1.368-.558,3.565,3.565,0,0,0,1.263-1.417,8.867,8.867,0,0,0,.8-2.1.2.2,0,0,1,.063-.107.948.948,0,0,0,.105.193,2,2,0,0,1,.105.215,8.694,8.694,0,0,1,.568,2.083,9.43,9.43,0,0,1,.168,2.427,6.525,6.525,0,0,1-.337,1.739c-.168.515-.337.923-.463,1.246A10.44,10.44,0,0,1,37.129,36c-.126.15-.232.279-.295.344H13.677a1.271,1.271,0,0,0-.147-.129,1.385,1.385,0,0,1-.168-.15,10.585,10.585,0,0,1-1.726-2.427,11.52,11.52,0,0,1-.61-1.482A7.366,7.366,0,0,1,10.583,29.923Z" transform="translate(-8.855 -6.624)"/></svg>