<?xml version="1.0" encoding="UTF-8"?>
<svg width="217px" height="41px" viewBox="0 0 217 41" version="1.1" xmlns="http://www.w3.org/2000/svg" xmlns:xlink="http://www.w3.org/1999/xlink">
    <!-- Generator: Sketch 52.4 (67378) - http://www.bohemiancoding.com/sketch -->
    <title>Group 5</title>
    <desc>Created with Sketch.</desc>
    <g id="Page-1" stroke="none" stroke-width="1" fill="none" fill-rule="evenodd">
        <g id="mobile_zigzag" transform="translate(-454.000000, -819.000000)" fill="#000000">
            <g id="Group-8" transform="translate(0.000000, 790.000000)">
                <g id="Group-5" transform="translate(454.000000, 29.000000)">
                    <path d="M179.481277,31.1933974 L183.117632,31.1933974 L183.117632,6.87913346 L179.481277,6.87913346 L179.481277,31.1933974 Z M212.251363,15.6374033 L208.080767,26.1792248 L207.95598,26.1792248 L203.627451,15.6374033 L199.708377,15.6374033 L206.201171,30.3706686 L202.498524,38.5668376 L206.292811,38.5668376 L216.297173,15.6374033 L212.251363,15.6374033 Z M191.616757,28.431518 C190.427387,28.431518 188.764218,27.8363524 188.764218,26.3659434 C188.764218,24.4909773 190.834892,23.7693877 192.622848,23.7693877 C194.219724,23.7693877 194.974292,24.1155951 195.945287,24.5823917 C195.662567,26.8366299 193.718629,28.431518 191.616757,28.431518 Z M192.05741,15.1044772 C189.423246,15.1044772 186.695493,16.2636886 185.566565,18.8271795 L188.795414,20.1731095 C189.485639,18.8271795 190.770549,18.3895578 192.119803,18.3895578 C194.001348,18.3895578 195.91409,19.5157044 195.945287,21.5170945 L195.945287,21.7679976 C195.286258,21.3926154 193.874612,20.8305146 192.150999,20.8305146 C188.668678,20.8305146 185.125913,22.7385454 185.125913,26.3037038 C185.125913,29.5576646 187.980403,31.654359 191.178055,31.654359 C193.623089,31.654359 194.974292,30.5593322 195.81855,29.2756417 L195.945287,29.2756417 L195.945287,31.1525527 L199.458805,31.1525527 L199.458805,21.8302371 C199.458805,17.5143143 196.226056,15.1044772 192.05741,15.1044772 Z M169.572455,18.5976712 L164.397718,18.5976712 L164.397718,10.2634083 L169.572455,10.2634083 C172.292409,10.2634083 173.836641,12.5079216 173.836641,14.4295672 C173.836641,16.3142582 172.292409,18.5976712 169.572455,18.5976712 Z M169.478865,6.87718847 L160.761363,6.87718847 L160.761363,31.1933974 L164.397718,31.1933974 L164.397718,21.981946 L169.478865,21.981946 C173.511026,21.981946 177.474945,19.0683577 177.474945,14.4295672 C177.474945,9.79077678 173.511026,6.87718847 169.478865,6.87718847 Z M121.941085,28.435408 C119.427808,28.435408 117.323987,26.3367686 117.323987,23.4543001 C117.323987,20.5387668 119.427808,18.4090076 121.941085,18.4090076 C124.421215,18.4090076 126.369053,20.5387668 126.369053,23.4543001 C126.369053,26.3367686 124.421215,28.435408 121.941085,28.435408 Z M126.117531,16.9988931 L125.992744,16.9988931 C125.175783,16.0283453 123.604254,15.1492119 121.627169,15.1492119 C117.47997,15.1492119 113.677884,18.7843898 113.677884,23.4543001 C113.677884,28.0911455 117.47997,31.6952037 121.627169,31.6952037 C123.604254,31.6952037 125.175783,30.8180152 125.992744,29.8144027 L126.117531,29.8144027 L126.117531,31.0047338 C126.117531,34.1711703 124.421215,35.8613627 121.689562,35.8613627 C119.459005,35.8613627 118.076605,34.2645296 117.511167,32.9166546 L114.338862,34.2334098 C115.249413,36.4254085 117.66715,39.1211584 121.689562,39.1211584 C125.961548,39.1211584 129.574505,36.6140721 129.574505,30.5029276 L129.574505,15.6510182 L126.117531,15.6510182 L126.117531,16.9988931 Z M132.087781,31.1933974 L135.729985,31.1933974 L135.729985,6.87913346 L132.087781,6.87913346 L132.087781,31.1933974 Z M141.101651,23.1722772 C141.008061,19.974721 143.583731,18.3467681 145.43603,18.3467681 C146.882772,18.3467681 148.107239,19.0683577 148.516695,20.101145 L141.101651,23.1722772 Z M152.410421,20.4142877 C151.718247,18.5665514 149.614425,15.1492119 145.311243,15.1492119 C141.039258,15.1492119 137.488694,18.5023669 137.488694,23.4231803 C137.488694,28.0600258 141.008061,31.6952037 145.718749,31.6952037 C149.518886,31.6952037 151.718247,29.376781 152.630747,28.028906 L149.803555,26.148105 C148.859857,27.5270997 147.572997,28.435408 145.718749,28.435408 C143.86645,28.435408 142.546444,27.5893393 141.700236,25.9283216 L152.78673,21.3537157 L152.410421,20.4142877 Z M64.0694287,17.689363 L64.0694287,21.1981169 L72.4866632,21.1981169 C72.2370904,23.1722772 71.5761123,24.6135114 70.5719715,25.615179 C69.3455549,26.8385749 67.4289133,28.1864498 64.0694287,28.1864498 C58.8849425,28.1864498 54.8332831,24.0183459 54.8332831,18.8485743 C54.8332831,13.6788028 58.8849425,9.50875388 64.0694287,9.50875388 C66.8654246,9.50875388 68.9068526,10.6057257 70.4140387,12.0177852 L72.8961187,9.54181863 C70.7903477,7.53653856 67.9963016,6 64.0694287,6 C56.9683009,6 51,11.7668821 51,18.8485743 C51,25.9283216 56.9683009,31.6952037 64.0694287,31.6952037 C67.900762,31.6952037 70.7903477,30.440688 73.0521018,28.0911455 C75.376249,25.7727228 76.0996203,22.5129271 76.0996203,19.8813617 C76.0996203,19.0683577 76.0372271,18.3156483 75.9104909,17.689363 L64.0694287,17.689363 Z M85.6691796,28.435408 C83.1578527,28.435408 80.9896885,26.3678884 80.9896885,23.4231803 C80.9896885,20.4454075 83.1578527,18.4090076 85.6691796,18.4090076 C88.1824563,18.4090076 90.3506205,20.4454075 90.3506205,23.4231803 C90.3506205,26.3678884 88.1824563,28.435408 85.6691796,28.435408 Z M85.6691796,15.1492119 C81.0832783,15.1492119 77.3455348,18.628791 77.3455348,23.4231803 C77.3455348,28.1864498 81.0832783,31.6952037 85.6691796,31.6952037 C90.2570307,31.6952037 93.9947742,28.1864498 93.9947742,23.4231803 C93.9947742,18.628791 90.2570307,15.1492119 85.6691796,15.1492119 Z M103.829505,28.435408 C101.316228,28.435408 99.1480637,26.3678884 99.1480637,23.4231803 C99.1480637,20.4454075 101.316228,18.4090076 103.829505,18.4090076 C106.342781,18.4090076 108.508996,20.4454075 108.508996,23.4231803 C108.508996,26.3678884 106.342781,28.435408 103.829505,28.435408 Z M103.829505,15.1492119 C99.2436033,15.1492119 95.5058598,18.628791 95.5058598,23.4231803 C95.5058598,28.1864498 99.2436033,31.6952037 103.829505,31.6952037 C108.415406,31.6952037 112.153149,28.1864498 112.153149,23.4231803 C112.153149,18.628791 108.415406,15.1492119 103.829505,15.1492119 Z" id="Fill-28"></path>
                    <g id="Group-32" fill-rule="nonzero">
                        <path d="M0.8138132,2.63276876 L0.8138132,38.8011765 C0.8138132,39.2503864 0.87818902,39.63471 0.992295451,39.9445812 L20.2689492,20.7169589 L0.994076173,1.48956088 C0.877822177,1.80235709 0.8138132,2.18580638 0.8138132,2.63276876 Z" id="Path"></path>
                        <path d="M28.0957542,26.6951284 L35.7288319,22.3690117 C37.46703,21.3822802 37.46703,20.0520594 35.7293247,19.0668484 L28.0956872,14.7404135 L22.1057802,20.7170138 L28.0957542,26.6951284 Z" id="Path"></path>
                        <path d="M3.75871851,40.4872864 L26.7717117,27.4439279 L21.187342,21.8719937 L2.09490529,40.9158765 C2.55002969,40.983144 3.11548248,40.8519123 3.75871851,40.4872864 Z" id="Path"></path>
                        <path d="M21.1873651,19.5619284 L26.7717117,13.9900173 L3.75792977,0.946211181 C3.23042377,0.646456601 2.74112522,0.501848377 2.32411107,0.501848377 C2.24489781,0.501848377 2.16876263,0.507021108 2.09569817,0.517285237 L21.1873651,19.5619284 Z" id="Path"></path>
                    </g>
                </g>
            </g>
        </g>
    </g>
</svg>