<svg xmlns="http://www.w3.org/2000/svg" width="45" height="45" viewBox="0 0 45 45"><path d="M22.5,0c-6.112,0-6.876.028-9.276.135A16.591,16.591,0,0,0,7.762,1.181,11.018,11.018,0,0,0,3.776,3.776a10.978,10.978,0,0,0-2.6,3.986A16.543,16.543,0,0,0,.135,13.224C.022,15.624,0,16.387,0,22.5s.028,6.876.135,9.276a16.6,16.6,0,0,0,1.046,5.462,11.034,11.034,0,0,0,2.595,3.986,11,11,0,0,0,3.986,2.595,16.612,16.612,0,0,0,5.462,1.046c2.4.112,3.163.135,9.276.135s6.876-.028,9.276-.135a16.65,16.65,0,0,0,5.462-1.046,11.5,11.5,0,0,0,6.581-6.581,16.6,16.6,0,0,0,1.046-5.462c.112-2.4.135-3.163.135-9.276s-.028-6.876-.135-9.276a16.64,16.64,0,0,0-1.046-5.462,11.043,11.043,0,0,0-2.595-3.986,10.963,10.963,0,0,0-3.986-2.595A16.553,16.553,0,0,0,31.776.135C29.376.022,28.612,0,22.5,0Zm0,4.05c6.006,0,6.722.03,9.094.133a12.4,12.4,0,0,1,4.176.778,7.4,7.4,0,0,1,4.271,4.269,12.423,12.423,0,0,1,.774,4.176c.107,2.374.131,3.086.131,9.094s-.028,6.722-.139,9.094a12.662,12.662,0,0,1-.789,4.176,7.144,7.144,0,0,1-1.686,2.591,7.02,7.02,0,0,1-2.587,1.68,12.514,12.514,0,0,1-4.191.774c-2.389.107-3.092.131-9.111.131s-6.724-.028-9.111-.139a12.758,12.758,0,0,1-4.193-.789,6.968,6.968,0,0,1-2.586-1.686,6.832,6.832,0,0,1-1.687-2.587,12.769,12.769,0,0,1-.788-4.191c-.084-2.362-.114-3.092-.114-9.082s.03-6.724.114-9.114a12.754,12.754,0,0,1,.788-4.189A6.67,6.67,0,0,1,6.555,6.579,6.655,6.655,0,0,1,9.141,4.9,12.453,12.453,0,0,1,13.3,4.106c2.391-.084,3.094-.112,9.111-.112l.084.056Zm0,6.9A11.554,11.554,0,1,0,34.054,22.5,11.553,11.553,0,0,0,22.5,10.946ZM22.5,30A7.5,7.5,0,1,1,30,22.5,7.5,7.5,0,0,1,22.5,30ZM37.211,10.491a2.7,2.7,0,1,1-2.7-2.7A2.7,2.7,0,0,1,37.211,10.491Z"/></svg>