<svg xmlns="http://www.w3.org/2000/svg" width="37.853" height="44.533" viewBox="0 0 37.853 44.533"><path d="M4.32,10.2V42.164c0,1.393,1.2,3.089,2.679,3.089H39.24a3.362,3.362,0,0,0,2.933-3.089V10.2ZM23.208,35.566c-5.688,0-10.3-4.353-10.3-9.724s4.611-9.724,10.3-9.724,10.3,4.353,10.3,9.724S28.9,35.566,23.208,35.566ZM39.24.72H7A2.487,2.487,0,0,0,4.32,3.094V8.3H42.173V3.094C42.173,1.7,40.715.72,39.24.72Zm-22.3,5.685H6.261V2.615H16.938ZM35.521,6.14a2.133,2.133,0,0,1-2.192-2.073,2.2,2.2,0,0,1,4.386,0A2.137,2.137,0,0,1,35.521,6.14Z" transform="translate(-4.32 -0.72)"/></svg>