<svg xmlns="http://www.w3.org/2000/svg" width="44.307" height="28.995" viewBox="0 0 44.307 28.995"><g transform="translate(0 -65.79)"><g transform="translate(0 65.79)"><rect width="6.893" height="2.894" transform="translate(34.668 26.101)"/><rect width="6.894" height="2.894" transform="translate(4.511 26.101)"/><path d="M40.993,65.79H3.313A3.311,3.311,0,0,0,0,69.1V87.737A3.313,3.313,0,0,0,3.313,91.05H41a3.312,3.312,0,0,0,3.311-3.313V69.1A3.312,3.312,0,0,0,40.993,65.79Zm-10.6,20.969H3.586V69.844H30.393Zm5.982,0H32.286V84.094h4.089Zm3.3-7.814V79.95H34.331V78.945Zm-5.348-.969V76.969h5.348v1.006Zm5.348,3.194v1.006H34.331V81.169Zm1.414,5.59H37V84.094h4.089v2.665Zm0-11.6H32.6V69.844h8.5Z" transform="translate(0 -65.79)"/></g></g></svg>