<svg xmlns="http://www.w3.org/2000/svg" width="40.763" height="32.61" viewBox="0 0 40.763 32.61"><path d="M37.252,17.1,36.3,14.71l-1.693-4.232A9.465,9.465,0,0,0,25.774,4.5H14.989a9.466,9.466,0,0,0-8.831,5.979L4.465,14.71,3.511,17.1A5.423,5.423,0,0,0,0,22.164V26.24A5.391,5.391,0,0,0,1.359,29.8v4.592A2.718,2.718,0,0,0,4.076,37.11H6.794a2.718,2.718,0,0,0,2.718-2.718V31.675h21.74v2.718a2.718,2.718,0,0,0,2.718,2.718h2.718A2.718,2.718,0,0,0,39.4,34.393V29.8a5.387,5.387,0,0,0,1.359-3.561V22.164A5.423,5.423,0,0,0,37.252,17.1ZM11.2,12.5a4.077,4.077,0,0,1,3.785-2.562H25.774A4.077,4.077,0,0,1,29.559,12.5l1.693,4.232H9.511L11.2,12.5ZM6.794,26.223a2.563,2.563,0,0,1-2.718-2.709,2.563,2.563,0,0,1,2.718-2.709c1.631,0,4.076,2.438,4.076,4.064S8.424,26.223,6.794,26.223Zm27.175,0c-1.631,0-4.076.271-4.076-1.355s2.446-4.064,4.076-4.064a2.563,2.563,0,0,1,2.718,2.709,2.563,2.563,0,0,1-2.718,2.709Z" transform="translate(0 -4.5)"/><path d="M37.252,17.1,36.3,14.71l-1.693-4.232A9.465,9.465,0,0,0,25.774,4.5H14.989a9.466,9.466,0,0,0-8.831,5.979L4.465,14.71,3.511,17.1A5.423,5.423,0,0,0,0,22.164V26.24A5.391,5.391,0,0,0,1.359,29.8v4.592A2.718,2.718,0,0,0,4.076,37.11H6.794a2.718,2.718,0,0,0,2.718-2.718V31.675h21.74v2.718a2.718,2.718,0,0,0,2.718,2.718h2.718A2.718,2.718,0,0,0,39.4,34.393V29.8a5.387,5.387,0,0,0,1.359-3.561V22.164A5.423,5.423,0,0,0,37.252,17.1ZM11.2,12.5a4.077,4.077,0,0,1,3.785-2.562H25.774A4.077,4.077,0,0,1,29.559,12.5l1.693,4.232H9.511L11.2,12.5ZM6.794,26.223a2.563,2.563,0,0,1-2.718-2.709,2.563,2.563,0,0,1,2.718-2.709c1.631,0,4.076,2.438,4.076,4.064S8.424,26.223,6.794,26.223Zm27.175,0c-1.631,0-4.076.271-4.076-1.355s2.446-4.064,4.076-4.064a2.563,2.563,0,0,1,2.718,2.709,2.563,2.563,0,0,1-2.718,2.709Z" transform="translate(0 -4.5)"/></svg>