<svg xmlns="http://www.w3.org/2000/svg" xmlns:xlink="http://www.w3.org/1999/xlink" width="40" height="40" viewBox="0 0 40 40"><defs><style>.a{fill:#fff;}.b{clip-path:url(#a);}</style><clipPath id="a"><rect class="a" width="40" height="40" transform="translate(0.331 -0.05)"/></clipPath></defs><g class="b" transform="translate(-0.331 0.05)"><g transform="translate(0.331 0.244)"><g transform="translate(0 0)"><path d="M25.127,7.636v-.01L32.65,11,40.2,8.163,20.1.625,0,8.163,20.1,15.7l7.523-2.822L20.1,9.779V9.772Z" transform="translate(0 -0.625)"/></g><g transform="translate(0 10.051)"><path d="M0,27.375V49.99l18.845,7.068V34.444Zm10.051,22.7L5.025,48.188V45.507l5.025,1.885Z" transform="translate(0 -27.375)"/></g><g transform="translate(21.358 10.051)"><path d="M68.151,30.2V36.5l-5.025,1.885V32.087l-6.282,2.357V57.058L75.689,49.99V27.375Z" transform="translate(-56.844 -27.375)"/></g></g></g></svg>