<svg xmlns="http://www.w3.org/2000/svg" width="23.235" height="23.235" viewBox="0 0 23.235 23.235"><g transform="translate(-0.001)"><g transform="translate(1.282)"><path d="M49.366,3.205a.908.908,0,0,0-.986.821l-.12,1.319A11.457,11.457,0,0,0,28.337,6.3a.908.908,0,0,0,1.617.826,9.649,9.649,0,0,1,16.786-.8L45.446,5.4a.908.908,0,0,0-1.055,1.477l3.924,2.8a.908.908,0,0,0,1.431-.656l.441-4.834A.908.908,0,0,0,49.366,3.205Z" transform="translate(-28.237)"/></g><g transform="translate(0.001 13.383)"><g transform="translate(0)"><path d="M21.46,297.242a.908.908,0,0,0-1.221.4,9.649,9.649,0,0,1-16.786.8l1.294.924A.908.908,0,1,0,5.8,297.885l-3.924-2.8a.908.908,0,0,0-1.431.656L0,300.573a.908.908,0,1,0,1.808.165l.12-1.319a11.457,11.457,0,0,0,19.922-.955A.908.908,0,0,0,21.46,297.242Z" transform="translate(-0.001 -294.913)"/></g></g></g></svg>