<svg xmlns="http://www.w3.org/2000/svg" width="25.768" height="41.229" viewBox="0 0 25.768 41.229"><g transform="translate(0 18.038)"><path d="M20.063,46.813V64.85a2.579,2.579,0,0,0,2.577,2.577h2.577v1.288a1.288,1.288,0,1,0,2.577,0V67.427H38.1v1.288a1.288,1.288,0,1,0,2.577,0V67.427h2.577A2.578,2.578,0,0,0,45.83,64.85V46.813Zm20.614,9.019a1.288,1.288,0,0,1-2.577,0V50.678a1.288,1.288,0,1,1,2.577,0Z" transform="translate(-20.063 -46.813)"/></g><path d="M43.254,0H22.639a2.581,2.581,0,0,0-2.577,2.577V15.461H45.83V2.577A2.579,2.579,0,0,0,43.254,0ZM40.677,11.6a1.288,1.288,0,1,1-2.577,0V6.442a1.288,1.288,0,1,1,2.577,0Z" transform="translate(-20.063)"/></svg>