<svg xmlns="http://www.w3.org/2000/svg" width="43.344" height="27.586" viewBox="0 0 43.344 27.586"><path d="M40.174,5.484H5.13A4.154,4.154,0,0,0,.984,9.63V28.925A4.154,4.154,0,0,0,5.13,33.07H40.183a4.154,4.154,0,0,0,4.146-4.146V9.63A4.167,4.167,0,0,0,40.174,5.484Zm1.639,23.432a1.639,1.639,0,0,1-1.639,1.639H5.13a1.639,1.639,0,0,1-1.639-1.639V9.63A1.639,1.639,0,0,1,5.13,7.991H40.183A1.639,1.639,0,0,1,41.822,9.63V28.916Z" transform="translate(-0.984 -5.484)"/><path d="M37.807,9H5.574A1.078,1.078,0,0,0,4.5,10.074V26.549a1.078,1.078,0,0,0,1.074,1.074H37.807a1.078,1.078,0,0,0,1.074-1.074V10.074A1.078,1.078,0,0,0,37.807,9Z" transform="translate(-0.022 -4.523)"/></svg>