<svg xmlns="http://www.w3.org/2000/svg" width="44.533" height="30.283" viewBox="0 0 44.533 30.283"><path d="M24.5,6.75a33.187,33.187,0,0,0-22,8.6.766.766,0,0,0-.03,1.111l2.652,2.718a.827.827,0,0,0,1.152.029,26.542,26.542,0,0,1,7.877-4.969,27.62,27.62,0,0,1,20.722,0,26.74,26.74,0,0,1,7.877,4.969.827.827,0,0,0,1.152-.029l2.652-2.718a.767.767,0,0,0-.03-1.111A33.277,33.277,0,0,0,24.5,6.75Z" transform="translate(-2.246 -6.75)"/><path d="M8.032,21.31,10.9,24.067a.841.841,0,0,0,1.124.029,15.967,15.967,0,0,1,20.657,0,.841.841,0,0,0,1.124-.029l2.871-2.757a.763.763,0,0,0-.03-1.14,21.887,21.887,0,0,0-28.606,0A.778.778,0,0,0,8.032,21.31Z" transform="translate(-0.108 -4.089)"/><path d="M19.67,22.8a7.939,7.939,0,0,0-5.788,2.485.779.779,0,0,0,.019,1.091l5.2,5.135a.8.8,0,0,0,1.13,0l5.2-5.135a.779.779,0,0,0,.019-1.091A7.977,7.977,0,0,0,19.67,22.8Z" transform="translate(2.586 -1.457)"/></svg>